<mxfile host="app.diagrams.net" modified="2024-03-22T20:51:48.482Z" agent="Mozilla/5.0 (Windows NT 10.0; Win64; x64) AppleWebKit/537.36 (KHTML, like Gecko) Chrome/121.0.0.0 Safari/537.36 OPR/107.0.0.0" version="24.0.8" etag="hQUnPJFW0UjeptveF1vc" type="github">
  <diagram name="Page-1" id="SKvULN4OzI_ThWuSFYyS">
    <mxGraphModel>
      <root>
        <mxCell id="0" />
        <mxCell id="1" parent="0" />
      </root>
    </mxGraphModel>
  </diagram>
</mxfile>
